<svg width="500" height="500" viewBox="0 0 500 500" fill="none" xmlns="http://www.w3.org/2000/svg">
<rect width="500" height="500" fill="#EADAAA"/>
<path d="M434.283 196.835V382.918H407.756H195.535L195.535 143.668V130.268C195.535 123.137 201.486 117.085 208.828 117.085H354.658L434.283 196.835ZM407.756 210.127H341.437V143.668H195.535L195.535 382.918H407.756V210.127Z" fill="#DD5E3F"/>
<rect x="195.535" y="143.167" width="26.0818" height="35.1101" fill="#DD5E3F"/>
<path d="M257.729 185.298L434.283 382.917H402.182L257.729 224.42H105.251L24.9997 140.156L257.729 185.298Z" fill="#DD5E3F"/>
<path d="M280.802 268.059L257.228 244.485H116.286L139.86 268.059H280.802Z" fill="#DD5E3F"/>
<path d="M321.931 314.203L298.357 290.629H157.415L180.989 314.203H321.931Z" fill="#DD5E3F"/>
<path d="M363.059 360.346L339.485 336.772H198.543L222.117 360.346H363.059Z" fill="#DD5E3F"/>
</svg>
