<svg width="348" height="53" viewBox="0 0 348 53" fill="none" xmlns="http://www.w3.org/2000/svg">
<path d="M107.188 11.1099L102.944 10.4315V7.19606H131.512L132.03 16.6415H127.889L125.974 10.9012L114.796 10.3271V25.0954L122.507 24.9388L123.49 20.3466H126.802V33.6015H123.542L122.507 28.9049L114.796 28.6961V42.3163L122.714 42.8382V45.9692H103.203V42.8382L107.188 42.3163V11.1099Z" fill="#EDDFB5"/>
<path d="M138.606 7.82228L134.776 7.14388V4.32591L144.351 3.17784H144.454L145.851 4.16935V42.4207L149.629 42.8382V45.9692H134.983V42.8382L138.606 42.3685V7.82228Z" fill="#EDDFB5"/>
<path d="M153.192 31.5141C153.192 28.2439 153.831 25.4607 155.107 23.1646C156.418 20.8684 158.161 19.1463 160.334 17.9983C162.508 16.8154 164.871 16.224 167.424 16.224C171.772 16.224 175.118 17.5808 177.465 20.2944C179.845 22.9732 181.036 26.6261 181.036 31.2532C181.036 34.5582 180.38 37.3762 179.069 39.7071C177.792 42.0032 176.067 43.7253 173.894 44.8734C171.755 45.9866 169.391 46.5433 166.803 46.5433C162.491 46.5433 159.144 45.2039 156.763 42.525C154.383 39.8114 153.192 36.1411 153.192 31.5141ZM167.217 43.1513C171.116 43.1513 173.066 39.3592 173.066 31.775C173.066 27.809 172.6 24.7997 171.668 22.7471C170.737 20.6597 169.219 19.616 167.114 19.616C163.112 19.616 161.111 23.4081 161.111 30.9922C161.111 34.9583 161.594 37.985 162.56 40.0724C163.56 42.125 165.113 43.1513 167.217 43.1513Z" fill="#EDDFB5"/>
<path d="M182.687 17.0068H196.039V19.9813L192.417 20.6075L196.246 34.4886L197.488 40.1767L198.627 34.4364L203.285 17.0068H209.547L214.671 34.4364L215.913 40.1767L217.155 34.4886L220.777 20.6597L216.999 19.9813V17.0068H228.075V19.9813L225.435 20.5553L217.569 46.3867H211.617L206.39 29.4789L205.2 23.2689L204.268 29.4789L199.455 46.3867H193.452L185.171 20.5553L182.687 19.9813V17.0068Z" fill="#EDDFB5"/>
<path d="M232.983 11.1099L228.739 10.4315V7.19606H257.307L257.825 16.6415H253.685L251.77 10.9012L240.591 10.3271V25.0954L248.302 24.9388L249.286 20.3466H252.598V33.6015H249.337L248.302 28.9049L240.591 28.6961V42.3163L248.509 42.8382V45.9692H228.998V42.8382L232.983 42.3163V11.1099Z" fill="#EDDFB5"/>
<path d="M267.558 12.2058C266.316 12.2058 265.333 11.8405 264.608 11.1099C263.884 10.3793 263.521 9.44 263.521 8.29194C263.521 6.96993 263.935 5.87405 264.763 5.00431C265.592 4.13456 266.696 3.69969 268.076 3.69969C269.456 3.69969 270.508 4.08238 271.233 4.84775C271.957 5.57834 272.319 6.50027 272.319 7.61354C272.319 9.00513 271.905 10.1184 271.077 10.9534C270.249 11.7883 269.093 12.2058 267.61 12.2058H267.558ZM264.815 21.9121L261.141 20.9206V17.4242L270.612 16.2762H270.715L272.164 17.3199V42.4207L275.632 42.8382V45.9692H261.192V42.8382L264.815 42.3685V21.9121Z" fill="#EDDFB5"/>
<path d="M282.343 7.82228L278.513 7.14388V4.32591L288.088 3.17784H288.191L289.589 4.16935V42.4207L293.367 42.8382V45.9692H278.72V42.8382L282.343 42.3685V7.82228Z" fill="#EDDFB5"/>
<path d="M309.971 46.5433C305.417 46.5433 302.019 45.2039 299.776 42.525C297.568 39.8114 296.464 36.1237 296.464 31.4619C296.464 28.3308 297.033 25.6172 298.172 23.3211C299.345 21.025 300.983 19.2681 303.088 18.0505C305.193 16.8328 307.625 16.224 310.385 16.224C313.836 16.224 316.492 17.1459 318.355 18.9898C320.218 20.7989 321.185 23.3907 321.254 26.7653C321.254 29.0614 321.116 30.7661 320.84 31.8794H304.02C304.158 35.0453 304.899 37.5153 306.245 39.2896C307.591 41.0291 309.506 41.8988 311.99 41.8988C313.335 41.8988 314.715 41.6727 316.13 41.2204C317.579 40.7682 318.718 40.2289 319.546 39.6027L320.84 42.4729C319.908 43.4818 318.39 44.4211 316.285 45.2908C314.215 46.1258 312.11 46.5433 309.971 46.5433ZM314.008 28.7483C314.077 27.7742 314.112 27.0262 314.112 26.5044C314.112 21.8773 312.576 19.5638 309.506 19.5638C307.815 19.5638 306.504 20.2422 305.572 21.599C304.641 22.9558 304.123 25.3389 304.02 28.7483H314.008Z" fill="#EDDFB5"/>
<path d="M331.128 41.6901C331.404 42.1076 332.025 42.5077 332.991 42.8903C333.992 43.2382 334.993 43.4122 335.993 43.4122C337.615 43.4122 338.822 43.0817 339.616 42.4207C340.444 41.7249 340.858 40.8203 340.858 39.7071C340.858 38.559 340.358 37.6371 339.357 36.9413C338.357 36.2107 336.666 35.3236 334.285 34.2799L332.836 33.6537C330.456 32.6448 328.679 31.4271 327.506 30.0007C326.333 28.5744 325.746 26.7305 325.746 24.4692C325.746 22.9036 326.212 21.512 327.143 20.2944C328.075 19.042 329.386 18.0679 331.077 17.3721C332.767 16.6763 334.717 16.3284 336.925 16.3284C338.546 16.3284 339.926 16.4327 341.065 16.6415C342.238 16.8502 343.463 17.1285 344.74 17.4764C345.43 17.72 345.947 17.8591 346.292 17.8939V24.7301H342.204L341.013 20.7641C340.806 20.4162 340.34 20.1031 339.616 19.8247C338.891 19.5464 338.063 19.4073 337.132 19.4073C335.717 19.4073 334.579 19.7204 333.716 20.3466C332.888 20.938 332.474 21.773 332.474 22.8514C332.474 23.8256 332.767 24.6431 333.354 25.3041C333.94 25.9303 334.579 26.4174 335.269 26.7653C335.959 27.1132 337.235 27.6872 339.098 28.4874C340.962 29.2875 342.497 30.0529 343.704 30.7835C344.947 31.5141 345.964 32.4708 346.758 33.6537C347.586 34.8017 348 36.2107 348 37.8806C348 40.4551 346.999 42.5424 344.998 44.1428C342.997 45.7431 340.116 46.5433 336.355 46.5433C334.596 46.5433 333.009 46.3867 331.594 46.0736C330.214 45.7605 328.61 45.343 326.781 44.8212L325.643 44.4559V37.5675H329.938L331.128 41.6901Z" fill="#EDDFB5"/>
<path d="M80.9259 15.9V53H75.6807H33.7191L33.7192 5.3V2.62827C33.7192 1.20657 34.8959 0 36.3475 0H65.1819L80.9259 15.9ZM75.6807 18.55H62.5677V5.3H33.7192L33.7191 53H75.6807V18.55Z" fill="#EDDFB5"/>
<path d="M33.7191 5.2H38.8762V12.2H33.7191V5.2Z" fill="#EDDFB5"/>
<path d="M46.0166 13.5999L80.9259 53L74.5787 52.9999L46.0166 21.3999H15.8678L0 4.59988L46.0166 13.5999Z" fill="#EDDFB5"/>
<path d="M50.5785 30.1001L45.9174 25.4001H18.0495L22.7107 30.1001H50.5785Z" fill="#EDDFB5"/>
<path d="M58.7109 39.3002L54.0498 34.6002H26.1819L30.8431 39.3002H58.7109Z" fill="#EDDFB5"/>
<path d="M66.843 48.4999L62.1818 43.7999H34.314L38.9752 48.4999H66.843Z" fill="#EDDFB5"/>
</svg>
