<svg width="501" height="427" viewBox="0 0 501 427" fill="none" xmlns="http://www.w3.org/2000/svg">
<g clip-path="url(#clip0_364_38)">
<path d="M325.157 193.774V192.317C327.071 192.317 329.004 192.229 330.912 192.064L331.039 193.517C329.086 193.687 327.11 193.774 325.157 193.774ZM319.276 193.521C317.328 193.351 315.366 193.099 313.438 192.759L313.691 191.321C315.575 191.651 317.498 191.899 319.402 192.064L319.276 193.521ZM336.872 192.749L336.619 191.316C338.504 190.986 340.398 190.563 342.243 190.073L342.622 191.481C340.733 191.982 338.8 192.414 336.872 192.749ZM307.688 191.496C305.798 190.991 303.909 190.398 302.073 189.733L302.569 188.363C304.366 189.014 306.211 189.597 308.062 190.087L307.688 191.496ZM348.236 189.708L347.736 188.339C349.533 187.683 351.325 186.94 353.059 186.133L353.676 187.455C351.903 188.28 350.077 189.043 348.236 189.708ZM296.634 187.489C294.861 186.663 293.103 185.75 291.413 184.773L292.141 183.51C293.793 184.467 295.512 185.361 297.251 186.167L296.634 187.489ZM358.897 184.734L358.168 183.471C359.82 182.515 361.456 181.47 363.025 180.368L363.86 181.562C362.258 182.685 360.587 183.753 358.897 184.734ZM286.449 181.606C284.851 180.484 283.283 179.28 281.782 178.021L282.719 176.904C284.186 178.138 285.721 179.314 287.285 180.411L286.449 181.606ZM368.528 177.968L367.59 176.856C369.043 175.632 370.461 174.33 371.811 172.984L372.865 173.99L372.855 174C371.461 175.384 370.009 176.715 368.528 177.968ZM277.44 174.038L277.421 174.019C276.036 172.635 274.711 171.187 273.462 169.71L274.575 168.773C275.794 170.22 277.09 171.634 278.436 172.979L278.475 173.018L277.44 174.038ZM376.838 169.647L375.721 168.71C376.949 167.243 378.129 165.708 379.227 164.144L380.422 164.979C379.3 166.577 378.095 168.146 376.838 169.647ZM269.868 165.047C268.742 163.449 267.678 161.778 266.697 160.083L267.96 159.354C268.921 161.011 269.961 162.643 271.063 164.207L269.868 165.047ZM383.588 160.02L382.326 159.291C383.282 157.635 384.176 155.915 384.982 154.181L386.303 154.798C385.478 156.566 384.565 158.325 383.588 160.02ZM263.968 154.861C263.142 153.088 262.379 151.262 261.714 149.421L263.084 148.921C263.739 150.718 264.482 152.51 265.289 154.244L263.968 154.861ZM388.552 149.358L387.182 148.862C387.833 147.065 388.416 145.219 388.907 143.369L390.315 143.743C389.81 145.632 389.217 147.522 388.552 149.358ZM259.946 143.806C259.441 141.916 259.014 139.983 258.674 138.06L260.111 137.807C260.442 139.692 260.864 141.586 261.355 143.432L259.946 143.806ZM391.583 137.992L390.145 137.739C390.475 135.859 390.728 133.936 390.893 132.027L392.345 132.153C392.175 134.106 391.923 136.068 391.583 137.992ZM257.902 132.221C257.732 130.278 257.644 128.296 257.639 126.339H259.096C259.096 128.257 259.184 130.191 259.349 132.095L257.902 132.221ZM391.141 126.271C391.141 124.352 391.053 122.419 390.888 120.515L392.34 120.388C392.51 122.331 392.598 124.313 392.598 126.271H391.141ZM259.344 120.583L257.892 120.456C258.062 118.504 258.314 116.541 258.649 114.618L260.087 114.87C259.762 116.75 259.509 118.674 259.344 120.583ZM390.145 114.802C389.815 112.918 389.397 111.023 388.902 109.177L390.31 108.803C390.815 110.693 391.243 112.626 391.583 114.555L390.145 114.802ZM261.325 109.245L259.917 108.871C260.422 106.982 261.015 105.087 261.68 103.256L263.05 103.752C262.399 105.544 261.821 107.395 261.325 109.245ZM387.173 103.684C386.517 101.886 385.779 100.094 384.968 98.36L386.289 97.7431C387.114 99.516 387.872 101.347 388.542 103.183L387.173 103.684ZM265.245 98.4231L263.924 97.8062C264.749 96.0333 265.663 94.2749 266.639 92.5845L267.901 93.3131C266.945 94.9744 266.051 96.689 265.245 98.4231ZM382.306 93.25C381.349 91.5936 380.305 89.9615 379.208 88.3926L380.402 87.5571C381.529 89.16 382.593 90.831 383.574 92.5214L382.306 93.25ZM270.995 88.4606L269.8 87.6251C270.917 86.027 272.127 84.4581 273.385 82.9571L274.502 83.8946C273.268 85.3615 272.088 86.8965 270.995 88.4606ZM375.691 83.8266C374.467 82.3694 373.161 80.9462 371.806 79.5958L372.811 78.5369L372.855 78.5806C374.22 79.9455 375.555 81.4028 376.808 82.8891L375.691 83.8266ZM278.387 79.6444L277.357 78.6146L277.401 78.5709C278.79 77.1817 280.252 75.841 281.743 74.5878L282.68 75.705C281.219 76.9339 279.791 78.2454 278.436 79.6007L278.387 79.6444ZM367.547 75.6904C366.08 74.4567 364.545 73.2763 362.981 72.1834L363.817 70.9885C365.415 72.1105 366.983 73.3152 368.479 74.5732L367.547 75.6904ZM287.251 72.1883L286.415 70.9933C288.018 69.8713 289.689 68.8026 291.379 67.8263L292.107 69.0892C290.451 70.0461 288.814 71.0905 287.251 72.1883ZM358.134 69.0844C356.483 68.1275 354.764 67.2337 353.03 66.4225L353.647 65.1013C355.419 65.9271 357.178 66.8451 358.868 67.8214L358.134 69.0844ZM297.212 66.4274L296.595 65.1062C298.368 64.2804 300.199 63.5226 302.034 62.8523L302.53 64.2221C300.738 64.8779 298.946 65.6162 297.212 66.4274ZM347.707 64.2221C345.91 63.5712 344.064 62.9883 342.214 62.4929L342.588 61.0842C344.477 61.5894 346.367 62.182 348.202 62.8475L347.707 64.2221ZM308.032 62.4977L307.659 61.0891C309.548 60.5839 311.481 60.1565 313.409 59.8213L313.661 61.2591C311.772 61.5845 309.878 62.0023 308.032 62.4977ZM336.59 61.2542C334.706 60.9239 332.782 60.6713 330.878 60.5062L331.005 59.0538C332.952 59.2238 334.914 59.4813 336.843 59.8164L336.59 61.2542ZM319.368 60.5062L319.242 59.0538C321.184 58.8838 323.161 58.7964 325.114 58.7964C325.541 58.7964 325.852 59.1218 325.852 59.525C325.852 59.9282 325.526 60.2536 325.123 60.2536C325.123 60.2536 325.118 60.2536 325.114 60.2536C323.205 60.2585 321.272 60.341 319.368 60.5062ZM407.411 287.167C406.862 287.167 406.318 287.163 405.784 287.148L405.822 285.691C407.653 285.739 409.567 285.7 411.529 285.579L411.621 287.031C410.184 287.124 408.77 287.167 407.411 287.167ZM399.951 286.682C397.925 286.4 395.992 285.997 394.205 285.482L394.608 284.083C396.328 284.578 398.193 284.967 400.15 285.239L399.951 286.682ZM417.406 286.453L417.207 285.011C419.047 284.758 420.946 284.438 422.85 284.049L423.141 285.477C421.209 285.87 419.28 286.201 417.406 286.453ZM428.804 284.161L428.435 282.752C430.257 282.276 432.107 281.737 433.938 281.154L434.38 282.543C432.525 283.131 430.645 283.68 428.804 284.161ZM388.707 283.32C386.862 282.359 385.215 281.217 383.826 279.925L384.817 278.856C386.114 280.061 387.649 281.13 389.378 282.028L388.707 283.32ZM439.868 280.644L439.358 279.279C441.121 278.618 442.918 277.904 444.686 277.151L445.259 278.492C443.467 279.25 441.655 279.978 439.868 280.644ZM450.548 276.097L449.917 274.781C451.621 273.965 453.336 273.095 455.016 272.202L455.38 272.833L455.72 273.479L455.696 273.494C454.001 274.392 452.267 275.272 450.548 276.097ZM380.16 275.189L380.806 274.854L380.15 275.174C379.217 273.421 378.581 271.527 378.256 269.52L379.693 269.287C379.994 271.133 380.572 272.877 381.422 274.47L381.447 274.514L380.16 275.189ZM460.786 270.643L460.048 269.384C461.699 268.413 463.341 267.398 464.929 266.363L465.72 267.587C464.113 268.632 462.457 269.661 460.786 270.643ZM470.514 264.318L469.664 263.133C471.228 262.011 472.767 260.85 474.244 259.679L475.147 260.821C473.656 262.006 472.097 263.182 470.514 264.318ZM379.591 263.735L378.144 263.575C378.348 261.724 378.771 259.781 379.397 257.804L380.786 258.246C380.189 260.131 379.786 261.977 379.591 263.735ZM479.611 257.095L478.649 256.002C480.096 254.725 481.509 253.413 482.84 252.097L483.865 253.132C482.51 254.467 481.082 255.803 479.611 257.095ZM382.913 253L381.602 252.364C382.418 250.683 383.384 248.969 384.463 247.264L385.696 248.046C384.642 249.702 383.705 251.373 382.913 253ZM487.872 248.915L486.784 247.944C488.081 246.487 489.305 245.005 490.431 243.538L491.587 244.422C490.441 245.923 489.193 247.434 487.872 248.915ZM388.965 243.363L387.809 242.479C388.955 240.983 390.203 239.473 391.519 237.991L392.607 238.958C391.311 240.415 390.087 241.901 388.965 243.363ZM494.933 239.647L493.705 238.865C494.759 237.204 495.696 235.538 496.492 233.906L497.804 234.547C496.978 236.228 496.012 237.942 494.933 239.647ZM396.551 234.809L395.526 233.775C396.876 232.444 398.304 231.108 399.776 229.811L400.737 230.904C399.29 232.182 397.882 233.498 396.551 234.809ZM499.999 229.107L498.61 228.665C499.212 226.785 499.615 224.939 499.81 223.181L501.257 223.341C501.058 225.197 500.63 227.135 499.999 229.107ZM405.143 227.227L404.239 226.085C405.735 224.9 407.294 223.725 408.877 222.588L409.727 223.773C408.159 224.891 406.619 226.056 405.143 227.227ZM414.463 220.533L413.671 219.309C415.278 218.265 416.939 217.235 418.605 216.254L419.344 217.507C417.692 218.484 416.051 219.504 414.463 220.533ZM499.717 217.624C499.416 215.768 498.833 214.015 497.983 212.417L499.266 211.722L499.271 211.737C500.198 213.476 500.83 215.38 501.155 217.396L499.717 217.624ZM424.395 214.68L423.656 213.422L423.719 213.388C425.414 212.485 427.158 211.606 428.887 210.775L429.514 212.091C427.804 212.912 426.085 213.787 424.395 214.68ZM434.749 209.726L434.176 208.385C435.963 207.622 437.775 206.899 439.567 206.233L440.077 207.598C438.309 208.259 436.517 208.978 434.749 209.726ZM494.613 208.05C493.321 206.845 491.786 205.777 490.052 204.873L490.728 203.581C492.573 204.543 494.215 205.689 495.604 206.986L494.613 208.05ZM445.497 205.728L445.055 204.339C446.915 203.746 448.795 203.202 450.635 202.717L451.004 204.125C449.188 204.601 447.338 205.14 445.497 205.728ZM456.585 202.828L456.298 201.4C458.231 201.012 460.164 200.681 462.034 200.429L462.228 201.871C460.388 202.124 458.489 202.444 456.585 202.828ZM484.827 202.814C483.107 202.313 481.242 201.925 479.285 201.653L479.484 200.21C481.51 200.492 483.442 200.895 485.23 201.415L484.827 202.814ZM467.916 201.303L467.823 199.851C469.237 199.763 470.635 199.719 471.99 199.719C472.568 199.729 473.107 199.729 473.656 199.744L473.617 201.201C473.078 201.186 472.549 201.157 471.99 201.182C470.669 201.177 469.3 201.22 467.916 201.303ZM77.7465 386.662C77.0034 386.667 76.2846 386.652 75.561 386.628L75.6047 385.17C76.3138 385.19 77.0326 385.209 77.7465 385.204C78.951 385.204 80.1846 385.17 81.4085 385.107L81.4862 386.565C80.2331 386.628 78.9752 386.662 77.7465 386.662ZM69.6504 386.191C67.6737 385.957 65.7018 385.627 63.798 385.219L64.104 383.796C65.9641 384.199 67.8874 384.515 69.8203 384.748L69.6504 386.191ZM87.3822 386.02L87.1928 384.578C89.0869 384.33 91.015 384 92.9189 383.597L93.22 385.025C91.2822 385.428 89.3152 385.763 87.3822 386.02ZM58.0671 383.679C56.1633 383.062 54.2983 382.348 52.5207 381.547L53.1181 380.216C54.8471 380.993 56.6635 381.688 58.5188 382.29L58.0671 383.679ZM98.9655 383.592L98.5624 382.193C100.408 381.663 102.268 381.051 104.089 380.386L104.59 381.756C102.734 382.431 100.845 383.053 98.9655 383.592ZM110.068 379.516L109.471 378.185C111.224 377.399 112.977 376.544 114.682 375.631L115.376 376.913L115.347 376.927C113.633 377.845 111.85 378.72 110.068 379.516ZM47.2415 378.802C45.5222 377.773 43.8709 376.636 42.3362 375.431L43.2347 374.285C44.7257 375.456 46.3235 376.553 47.9894 377.554L47.2415 378.802ZM120.505 373.96L119.733 372.721C121.374 371.696 122.997 370.608 124.556 369.476L125.41 370.657C123.827 371.808 122.176 372.92 120.505 373.96ZM37.9069 371.443C36.5227 370.015 35.2308 368.485 34.0652 366.887L35.2405 366.027C36.3624 367.567 37.6106 369.049 38.9511 370.428L37.9069 371.443ZM130.078 367.023L129.14 365.906C130.626 364.662 132.074 363.351 133.453 362.01L134.468 363.055C133.064 364.42 131.588 365.751 130.078 367.023ZM30.9229 361.879C30.9132 361.86 30.9035 361.845 30.8938 361.826C29.9613 360.077 29.1502 358.246 28.4751 356.39L29.8447 355.895C30.4955 357.687 31.2823 359.455 32.1808 361.141C32.1857 361.151 32.1905 361.16 32.1954 361.17L31.5349 361.5L30.9229 361.879ZM138.553 358.77L137.46 357.804C138.747 356.347 139.98 354.836 141.131 353.306L142.297 354.18C141.127 355.744 139.864 357.284 138.553 358.77ZM26.8336 350.654C26.4256 348.73 26.1439 346.748 25.9982 344.752L27.4504 344.645C27.5961 346.573 27.868 348.492 28.2614 350.353L26.8336 350.654ZM145.658 349.303L144.424 348.526C145.459 346.879 146.425 345.184 147.295 343.489L148.591 344.154C147.703 345.889 146.717 347.618 145.658 349.303ZM27.3921 338.879L25.9351 338.802C26.037 336.854 26.2605 334.862 26.6004 332.89L28.038 333.138C27.7126 335.057 27.4941 336.985 27.3921 338.879ZM151.054 338.753L149.699 338.214C150.422 336.407 151.054 334.561 151.578 332.735L152.977 333.138C152.438 335.013 151.792 336.902 151.054 338.753ZM29.3348 327.503L27.936 327.1C28.4703 325.23 29.1211 323.341 29.8593 321.485L31.2143 322.024C30.4858 323.836 29.8544 325.677 29.3348 327.503ZM154.308 327.348L152.87 327.1C153.2 325.181 153.419 323.253 153.516 321.359L154.973 321.436C154.871 323.384 154.648 325.376 154.308 327.348ZM33.6087 316.749L32.3119 316.084C33.2007 314.349 34.1866 312.615 35.2454 310.935L36.479 311.712C35.4445 313.359 34.478 315.054 33.6087 316.749ZM153.463 315.593C153.322 313.665 153.05 311.746 152.656 309.885L154.084 309.584C154.492 311.508 154.769 313.495 154.92 315.486L153.463 315.593ZM39.7718 306.932L38.6062 306.058C39.7816 304.494 41.0394 302.949 42.3508 301.468L43.4435 302.434C42.1613 303.887 40.9229 305.397 39.7718 306.932ZM151.078 304.348C150.427 302.551 149.64 300.778 148.737 299.087L150.024 298.403C150.957 300.156 151.773 301.987 152.448 303.853L151.078 304.348ZM47.4503 298.228L46.4353 297.183C47.834 295.818 49.3153 294.488 50.8257 293.215L51.7631 294.332C50.2769 295.58 48.8248 296.887 47.4503 298.228ZM145.677 294.206C144.555 292.666 143.307 291.184 141.967 289.805L143.011 288.79C144.395 290.218 145.687 291.753 146.853 293.346L145.677 294.206ZM56.3478 290.757L55.493 289.577C57.0763 288.43 58.7276 287.318 60.4032 286.274L61.1754 287.507C59.5241 288.537 57.902 289.63 56.3478 290.757ZM137.688 285.948C136.202 284.778 134.599 283.675 132.933 282.679L133.681 281.431C135.401 282.461 137.052 283.597 138.587 284.807L137.688 285.948ZM66.1875 284.612L65.8378 283.918L65.4881 283.34C65.5076 283.33 65.5221 283.32 65.5416 283.311C67.2803 282.388 69.0675 281.509 70.8548 280.707L71.4522 282.038C69.6941 282.825 67.9359 283.685 66.2264 284.598C66.2118 284.598 66.1972 284.608 66.1875 284.612ZM127.81 280.012C126.081 279.235 124.264 278.536 122.414 277.938L122.861 276.554C124.76 277.171 126.629 277.885 128.407 278.686L127.81 280.012ZM76.8383 279.842L76.338 278.473C78.1885 277.793 80.0826 277.176 81.9621 276.632L82.3652 278.031C80.5197 278.565 78.6596 279.172 76.8383 279.842ZM88.0039 276.632L87.7028 275.204C89.6406 274.796 91.6027 274.46 93.5405 274.208L93.7299 275.65C91.8358 275.903 89.9077 276.233 88.0039 276.632ZM116.819 276.437C114.959 276.034 113.035 275.714 111.102 275.485L111.277 274.038C113.254 274.276 115.221 274.601 117.13 275.014L116.819 276.437ZM99.5192 275.121L99.4414 273.664C101.423 273.562 103.439 273.538 105.367 273.601L105.323 275.058C103.434 274.995 101.462 275.019 99.5192 275.121Z" fill="#DD5E3F"/>
<path d="M100.034 398.64H387.546C387.546 398.64 383.87 353.995 423.126 301.477C462.378 248.954 474.282 173.013 467.633 144.053C461.247 116.235 435.098 112.111 415.21 126.722C404.787 134.377 390.416 148.051 352.223 106.593C314.03 65.1351 291.014 -20.5398 199.159 13.2677C116.42 43.7237 171.602 93.4781 132.204 167.238C108.096 212.368 40.3056 218.1 25.8666 257.488C11.4179 296.877 59.9899 341.522 100.034 398.64Z" fill="#FAF6EA"/>
<path d="M172.7 204.762C173.229 201.658 171.763 194.075 170.986 189.213C170.378 185.434 185.488 182.427 186.794 190.267C186.993 191.457 186.003 196.834 185.609 199.443C185.216 202.051 185.177 204.393 185.177 204.393L172.7 204.762Z" fill="#EDDFB5"/>
<path d="M100.524 238.861C100.524 238.861 137.557 237.763 150.889 237.025C167.625 236.102 172.01 220.111 170.956 203.212L186.532 202.09C186.532 202.09 201.845 258.907 164.881 260.515C123.987 262.293 123.851 271.964 123.851 271.964" fill="#DD5E3F"/>
<path d="M120.515 248.304C120.515 248.304 128.29 253.283 132.885 265.271C132.885 265.271 128.873 266.47 125.881 268.875C124.978 269.603 120.515 248.304 120.515 248.304Z" fill="#333333"/>
<path d="M122.272 251.912C126.634 264.119 133.122 284.156 142.904 320.057C146.464 333.128 148.246 342.634 148.246 342.634H65.8714C56.7651 344.222 57.6053 265.1 74.3221 249.42C87.4838 237.078 115.191 232.104 122.272 251.912Z" fill="#DD5E3F"/>
<path d="M89.8299 298.277C87.5084 292.127 87.7172 284.545 90.4564 275.534C85.1286 279.629 81.6317 285.215 80.5195 292.734L89.8299 298.277Z" fill="#333333"/>
<path d="M360.97 257.008C350.31 257.008 340.15 259.131 330.878 262.968C313.559 230.166 279.111 207.803 239.441 207.803C191.457 207.803 151.117 240.513 139.48 284.851C132.996 282.738 126.075 281.592 118.883 281.592C82.1805 281.592 52.4282 311.348 52.4282 348.056C52.4282 384.763 82.1805 414.519 118.883 414.519H360.97C404.462 414.519 439.717 379.259 439.717 335.761C439.717 292.263 404.462 257.008 360.97 257.008Z" fill="#F9EFD2"/>
<path d="M146.445 348.798C146.445 348.798 151.574 345.199 152.545 344.344C153.516 343.494 156.877 341.896 158.319 341.259C159.762 340.623 161.088 341.541 160.097 343.071C159.106 344.601 156.425 346.078 156.581 347.71L146.445 348.798Z" fill="#EADCB2"/>
<path d="M216.736 323.423L155.24 331.39C154.201 331.526 153.467 332.473 153.603 333.512L159.383 378.157C159.519 379.196 160.466 379.93 161.505 379.794L223.001 371.832C224.04 371.696 224.773 370.749 224.637 369.71L218.858 325.065C218.727 324.026 217.775 323.292 216.736 323.423Z" fill="#5C5C5C"/>
<path d="M158.198 332.201L160.699 327.581L182.059 324.817L186.138 328.582L158.198 332.201Z" fill="#5C5C5C"/>
<path d="M215.944 327.275L154.026 335.295C152.986 335.431 152.253 336.378 152.389 337.417L157.848 379.57C157.984 380.609 158.931 381.343 159.97 381.207L221.888 373.187C222.928 373.051 223.661 372.104 223.525 371.065L218.066 328.912C217.93 327.872 216.978 327.139 215.944 327.275Z" fill="#DD5E3F"/>
<path d="M227.372 152.719L165.944 144.248C164.905 144.107 163.948 144.831 163.807 145.866L157.659 190.461C157.518 191.501 158.241 192.458 159.276 192.599L220.704 201.07C221.743 201.211 222.7 200.487 222.841 199.452L228.989 154.857C229.13 153.817 228.406 152.86 227.372 152.719Z" fill="#5C5C5C"/>
<path d="M168.581 145.807L172.209 142.009L193.545 144.948L196.493 149.659L168.581 145.807Z" fill="#5C5C5C"/>
<path d="M225.594 156.227L163.744 147.697C162.705 147.556 161.748 148.28 161.607 149.315L155.798 191.424C155.657 192.463 156.381 193.42 157.416 193.561L219.266 202.09C220.305 202.231 221.262 201.508 221.403 200.473L227.211 158.364C227.357 157.325 226.629 156.368 225.594 156.227Z" fill="#DD5E3F"/>
<path d="M322.267 141.091H260.262C259.213 141.091 258.368 141.941 258.368 142.985V188.004C258.368 189.053 259.218 189.898 260.262 189.898H322.267C323.317 189.898 324.162 189.048 324.162 188.004V142.985C324.162 141.941 323.312 141.091 322.267 141.091Z" fill="#5C5C5C"/>
<path d="M263.083 142.276L266.158 138.016H287.697L291.262 142.276H263.083Z" fill="#5C5C5C"/>
<path d="M320.985 144.807H258.552C257.503 144.807 256.658 145.657 256.658 146.701V189.208C256.658 190.257 257.508 191.103 258.552 191.103H320.985C322.034 191.103 322.879 190.253 322.879 189.208V146.701C322.879 145.657 322.034 144.807 320.985 144.807Z" fill="#DD5E3F"/>
<path d="M148.247 380.925L246.071 348.973L240.655 394.657L148.247 391.752V380.925Z" fill="#F9EFD2"/>
<path d="M148.247 380.925L236.542 352.087" stroke="#424242" stroke-width="3" stroke-miterlimit="10" stroke-linecap="round" stroke-linejoin="round"/>
<path d="M140.364 351.456C140.364 351.456 151.18 345.729 156.037 345.87C157.902 345.923 160.49 347.05 160.928 349.217C162.103 355.045 159.665 364.148 157.377 364.522C154.186 365.042 139.995 364.503 139.995 364.503L140.364 351.456Z" fill="#EDDFB5"/>
<path d="M93.0641 239.784C93.0641 239.784 43.9287 245.632 47.3867 311.163C49.7762 356.381 87.78 370.89 142.01 366.139V347.919C142.01 347.919 99.9267 347.128 86.9884 326.003C75.6479 307.491 83.6858 280.45 92.3988 273.718" fill="#DD5E3F"/>
<path d="M156.445 345.933C156.445 345.933 167.338 345.204 169.466 345.398C171.593 345.592 171.588 349.512 169.349 349.449C166.678 349.372 158.82 350.814 157.071 351.577L156.445 345.933Z" fill="#EDDFB5"/>
<path d="M100.726 247.332C105.206 247.129 108.752 245.074 108.647 242.743C108.541 240.411 104.823 238.686 100.343 238.889C95.8629 239.092 92.3166 241.147 92.4223 243.478C92.528 245.81 96.2456 247.535 100.726 247.332Z" fill="#EDDFB5"/>
<path d="M108.46 241.945C108.46 241.945 105.959 237.709 105.672 229.651C105.376 221.233 105.473 214.204 105.473 214.204H90.7231C90.7231 214.204 92.9621 222.127 93.2001 231.137C93.3992 238.613 92.4181 243.456 92.4181 243.456L108.46 241.945ZM173.195 200.244C173.195 200.244 170.111 197.47 170.111 193.113C170.111 188.756 170.13 186.172 171.51 185.934C174.084 185.487 174.22 187.887 174.628 191.778C175.055 195.829 176.857 196.926 176.857 196.926" fill="#EDDFB5"/>
<path d="M398.873 191.107H358.892C355.225 191.107 352.253 188.135 352.253 184.467V151.447C352.253 147.779 355.225 144.807 358.892 144.807H398.873C402.539 144.807 405.512 147.779 405.512 151.447V184.467C405.512 188.135 402.539 191.107 398.873 191.107Z" fill="#FEEAAF"/>
<path d="M360.937 181.932H396.833L388.523 167.253L383.749 172.683L373.311 153.987L360.937 181.932Z" fill="#DD5E3F"/>
<path d="M388.877 163.002C391.122 163.002 392.942 161.182 392.942 158.937C392.942 156.691 391.122 154.871 388.877 154.871C386.632 154.871 384.812 156.691 384.812 158.937C384.812 161.182 386.632 163.002 388.877 163.002Z" fill="#DD5E3F"/>
<path d="M105.609 227.63C105.609 227.63 100.854 229.884 97.0953 234.635C93.7199 238.894 92.564 242.538 92.564 242.538C92.564 242.538 93.851 237.107 92.8165 224.599L105.609 227.63Z" fill="#333333" fill-opacity="0.54"/>
<path d="M75.6579 163.6C75.6579 163.6 64.8954 163.221 62.1223 172.659C56.1145 193.113 64.3855 208.978 64.3855 208.978C64.3855 208.978 66.4933 208.472 66.3427 206.967C65.114 194.6 71.3646 175.156 75.6579 163.6Z" fill="#333333"/>
<path d="M74.6284 223.093L77.7707 226.197L82.5497 226.785L75.658 220.873L74.6284 223.093Z" fill="#333333"/>
<path d="M97.7462 231.336C116.56 231.336 131.811 216.082 131.811 197.266C131.811 178.45 116.56 163.196 97.7462 163.196C78.9326 163.196 63.6812 178.45 63.6812 197.266C63.6812 216.082 78.9326 231.336 97.7462 231.336Z" fill="#EDDFB5"/>
<path d="M120.893 211.105C115.561 216.361 104.371 216.006 97.5859 214.175C99.5966 214.097 101.588 214.126 103.589 214.112C104.963 214.087 107.426 213.995 108.771 213.917C112.899 213.543 117.207 213.14 120.893 211.105Z" fill="#333333"/>
<path d="M102.797 196.683C104.141 196.683 105.231 195.085 105.231 193.113C105.231 191.141 104.141 189.543 102.797 189.543C101.454 189.543 100.364 191.141 100.364 193.113C100.364 195.085 101.454 196.683 102.797 196.683Z" fill="#333333"/>
<path d="M121.627 195.338C122.81 195.338 123.768 193.931 123.768 192.195C123.768 190.459 122.81 189.052 121.627 189.052C120.444 189.052 119.485 190.459 119.485 192.195C119.485 193.931 120.444 195.338 121.627 195.338Z" fill="#333333"/>
<path d="M111.442 189.543C112.161 191.52 113.604 192.977 115.051 194.396C116.741 196.227 122.176 199.87 121.496 202.59C121.277 203.561 120.35 204.037 119.602 204.538C118.727 205.116 117.819 205.645 116.892 206.136C115.949 206.597 114.993 207.078 113.953 207.277C114.866 206.777 115.687 206.15 116.508 205.529C117.523 204.756 118.543 203.94 119.524 203.124C119.951 202.809 120.364 202.42 120.155 201.847C119.398 200.113 117.674 198.85 116.372 197.465C114.25 195.26 111.69 192.773 111.442 189.543Z" fill="#333333"/>
<path d="M75.6823 212.339L79.3734 211.877C79.3734 211.877 75.4346 196.868 79.8785 188.732C83.4725 182.15 92.9479 175.014 102.205 177.914C106.212 179.168 110.5 178.862 114.361 177.205C117.168 175.996 120.825 175.471 124.954 177.414C124.954 177.414 124.735 171.954 124.487 166.261C124.313 162.259 127.163 149.387 127.163 149.387C111.292 145.268 84.4487 143.354 73.929 159.859C56.4594 162.89 57.0131 175.073 57.7999 186.065C58.1059 190.34 59.2375 196.373 62.1029 204.489C64.9295 212.494 66.4157 213.519 66.9257 214.418C67.6784 215.744 76.7994 225.493 76.7994 225.493C76.7994 225.493 76.2651 224.477 75.3666 223.302C72.2049 219.163 64.9393 210.002 65.4784 207.948C66.168 205.296 71.9524 204.208 75.6823 212.339Z" fill="#333333"/>
<path d="M77.591 224.73L75.0898 222.884C75.0898 222.884 75.4784 222.131 77.0714 219.11C77.0665 219.11 77.591 220.159 77.591 224.73Z" fill="#E6E6E6"/>
<path d="M71.0974 207.768C69.3344 206.573 65.4976 206.622 63.9095 207.793C58.8731 211.504 65.3568 226.8 72.6127 224.73C77.8531 223.239 77.0663 219.11 77.0663 219.11" fill="#EDDFB5"/>
<path d="M75.6581 223.093C76.5032 221.927 77.1102 220.582 77.0665 219.11C77.4696 220.558 76.7751 222.151 75.6581 223.093ZM73.7883 210.498C72.2001 208.453 69.6795 207.433 67.1734 207.078C66.8092 207.025 66.4449 206.991 66.0758 207.005C68.9655 206.563 72.3701 207.841 73.7883 210.498ZM72.7004 213.082C71.5347 210.104 64.6334 206.869 64.1428 211.819C64.0894 214.107 64.5459 216.594 66.0758 218.377C64.4245 216.657 63.8708 214.136 63.9194 211.805C64.3857 206.573 71.6124 209.789 72.7004 213.082Z" fill="#E6E6E6"/>
<path d="M68.6305 215.088C67.4746 213.228 69.9224 211.217 71.6709 212.324C72.2099 212.635 72.5985 213.116 72.9045 213.626C72.5159 213.174 72.1031 212.747 71.5834 212.489C69.9419 211.591 67.8195 213.301 68.6305 215.088Z" fill="#E6E6E6"/>
<path d="M73.7884 221.398C74.2352 220.732 74.5169 219.892 74.3129 219.129C74.2644 218.93 74.1769 218.78 74.0167 218.692C73.2687 218.386 72.3751 218.775 71.6126 218.41C70.8355 218.066 70.6267 216.56 71.4426 216.157C72.0448 215.885 72.7151 216.021 73.3173 216.181L73.1862 216.273C73.2105 215.54 73.1327 214.787 72.9628 214.063C72.7928 213.339 72.5159 212.63 72.0546 212.033C72.5499 212.601 72.8802 213.301 73.089 214.029C73.2882 214.763 73.3902 215.515 73.3902 216.283C73.3902 216.351 73.3222 216.4 73.259 216.375C72.6276 216.22 71.5057 215.992 71.2192 216.744C71.0444 217.512 71.3503 218.328 72.2585 218.352C72.8511 218.425 73.5261 218.26 74.0992 218.551C74.9492 219.246 74.3469 220.684 73.7884 221.398Z" fill="#E6E6E6"/>
<path d="M107.275 183.52C113.133 183.52 117.882 178.77 117.882 172.911C117.882 167.052 113.133 162.303 107.275 162.303C101.417 162.303 96.668 167.052 96.668 172.911C96.668 178.77 101.417 183.52 107.275 183.52Z" fill="#333333"/>
<path d="M92.2146 185.312C96.9033 185.312 100.704 181.511 100.704 176.821C100.704 172.132 96.9033 168.331 92.2146 168.331C87.526 168.331 83.7251 172.132 83.7251 176.821C83.7251 181.511 87.526 185.312 92.2146 185.312Z" fill="#333333"/>
<path d="M143.613 166.232C143.856 158.324 136.857 151.951 127.154 149.387C125.648 148.988 124.118 148.789 122.622 148.75C102.108 148.167 110.471 157.081 110.471 166.237C110.471 175.393 117.892 182.81 127.042 182.81C136.192 182.81 143.336 175.383 143.613 166.232Z" fill="#333333"/>
<path d="M120.892 136.23C128.219 123.538 118.304 104.095 98.7476 92.8019C79.1908 81.5092 57.3975 82.6436 50.0708 95.3355C42.7441 108.028 52.6586 127.471 72.2153 138.764C91.7721 150.056 113.565 148.922 120.892 136.23Z" fill="#FAF6EA"/>
</g>
<defs>
<clipPath id="clip0_364_38">
<rect width="501" height="427" fill="white"/>
</clipPath>
</defs>
</svg>
